<svg width="93"
    xmlns="http://www.w3.org/2000/svg" height="69" id="screenshot-b767314a-b3f3-807d-8006-67703053160e" viewBox="216.5 347.1 93 69" style="-webkit-print-color-adjust::exact"
    xmlns:xlink="http://www.w3.org/1999/xlink" fill="none" version="1.1">
    <g id="shape-b767314a-b3f3-807d-8006-67703053160e" style="fill:#000000" width="251.175" height="164.144" xml:space="preserve" rx="0" ry="0">
        <defs></defs>
        <g id="shape-b767314a-b3f3-807d-8006-67703053160f" style="display:none">
            <defs></defs>
            <g class="fills" id="fills-b767314a-b3f3-807d-8006-67703053160f">
                <rect rx="0" ry="0" x="221.2873428154607" y="356.08435049844604" transform="matrix(1.000000, 0.000000, 0.000000, 1.000000, 0.000000, 0.000000)" width="83.42568327641402" height="51.031714887111775" fill="none" style="fill:none"></rect>
            </g>
        </g>
        <g id="shape-b767314a-b3f3-807d-8006-677030531610" style="fill:#000000" rx="0" ry="0">
            <defs></defs>
            <g id="shape-b767314a-b3f3-807d-8006-677030531611">
                <defs></defs>
                <g class="fills" id="fills-b767314a-b3f3-807d-8006-677030531611">
                    <path d="M276.9130859375,403.6899719238281C279.719970703125,403.2602233886719,282.798828125,402.7646789550781,285.581787109375,402.2634582519531C290.558837890625,401.3669128417969,293.139892578125,396.1826477050781,291.34423828125,391.7167053222656C290.861572265625,390.5157165527344,290.356201171875,389.2822570800781,289.856201171875,388.0902404785156C287.999755859375,383.6661682128906,281.858642578125,380.5619201660156,276.80712890625,381.4029846191406C275.349609375,381.6457214355469,273.84375,381.9059143066406,272.388671875,382.1626281738281C267.332275390625,383.0553283691406,260.7275390625,387.0198059082031,257.6240234375,390.9426574707031L255.52685546875,393.5929260253906C254.258544921875,395.1965026855469,253.89306640625,397.2637023925781,254.551025390625,399.1170959472656C255.208740234375,400.9705505371094,256.8046875,402.3709411621094,258.815673828125,402.8594055175781C263.73046875,404.0528869628906,271.838623046875,404.4668273925781,276.9130859375,403.6899719238281Z" style="stroke-width:0.499999;stroke-linecap:round;stroke-linejoin:round;fill:#219ebc;fill-opacity:1"></path>
                </g>
            </g>
            <g id="shape-b767314a-b3f3-807d-8006-677030531612">
                <defs></defs>
                <g class="fills" id="fills-b767314a-b3f3-807d-8006-677030531612">
                    <path d="M280.396728515625,379.1240539550781C281.77587890625,378.7208557128906,283.2568359375,378.2798156738281,284.736572265625,377.8253479003906C291.092041015625,375.8735656738281,296.430908203125,368.2586975097656,297.341064453125,361.9729309082031C297.697998046875,359.5065002441406,298.04296875,357.0266418457031,298.272216796875,354.9709777832031C298.574462890625,352.2575988769531,295.947021484375,350.1767883300781,293.0576171875,350.6175842285156C285.65625,351.7471008300781,272.290283203125,354.1854553222656,264.927490234375,355.5484924316406C262.045654296875,356.0819396972656,260.048828125,358.7201843261719,260.465576171875,361.4332580566406L260.7724609375,363.4295959472656C261.6259765625,368.9837951660156,264.57080078125,374.0071105957031,269.073486328125,377.5904235839844C271.50048828125,379.5215148925781,276.57958984375,380.2401428222656,280.396728515625,379.1240539550781L280.396728515625,379.1240539550781" style="stroke-width:0.499999;stroke-linecap:round;stroke-linejoin:round;fill:#fcbf49;fill-opacity:1"></path>
                </g>
            </g>
            <g id="shape-b767314a-b3f3-807d-8006-677030531613">
                <defs></defs>
                <g class="fills" id="fills-b767314a-b3f3-807d-8006-677030531613">
                    <path d="M253.73095703125,385.6548156738281C258.131103515625,382.1820373535156,262.431640625,373.5867004394531,259.29345703125,369.2319641113281C258.890625,368.6730651855469,258.447509765625,368.0791320800781,257.9609375,367.4479064941406C253.82568359375,362.0838317871094,245.190673828125,361.2834777832031,239.8330078125,365.8133850097656C234.461669921875,370.3548889160156,228.179443359375,375.8711242675781,224.22412109375,379.3686828613281C222.062255859375,381.2805480957031,222.094482421875,384.2630920410156,224.287109375,386.0211486816406L225.35595703125,386.8783264160156C228.556884765625,389.4448547363281,232.400634765625,391.2124328613281,236.550048828125,392.0257873535156C240.3916015625,392.7788391113281,248.178466796875,390.0368347167969,253.73095703125,385.6548156738281L253.73095703125,385.6548156738281" style="stroke-width:0.499999;stroke-linecap:round;stroke-linejoin:round;fill:#d62828;fill-opacity:1"></path>
                </g>
            </g>
            <g id="shape-b767314a-b3f3-807d-8006-677030531614">
                <defs></defs>
                <g class="fills" id="fills-b767314a-b3f3-807d-8006-677030531614">
                    <path d="M284.465576171875,383.4531555175781C288.52392578125,385.9844055175781,292.32470703125,390.0494689941406,294.353271484375,394.0282897949219C295.064453125,395.4227600097656,294.9921875,397.2139587402344,294.157958984375,398.8782043457031C293.01953125,401.1501159667969,290.8564453125,401.6802062988281,277.2255859375,403.0270690917969C274.456787109375,403.3006896972656,270.639892578125,404.2351379394531,267.331298828125,405.4496154785156C259.19482421875,408.4360656738281,255.8330078125,407.5365295410156,254.774169921875,402.0890197753906C254.11083984375,398.6763000488281,255.19091796875,392.2799377441406,257.060791015625,388.5492248535156C259.77783203125,383.1285705566406,265.07763671875,380.3395080566406,272.968017578125,380.1780090332031C277.658203125,380.0820617675781,280.239013671875,380.8171081542969,284.465576171875,383.4531555175781L284.465576171875,383.4531555175781M272.571044921875,381.2189025878906C268.896240234375,381.3989562988281,264.228515625,382.8836364746094,261.373046875,384.7804870605469C258.38037109375,386.7687683105469,256.579833984375,390.3587951660156,256.01318359375,395.4658508300781C255.254150390625,402.3163757324219,256.497802734375,405.8252258300781,259.882080078125,406.3796691894531C260.643310546875,406.5042419433594,263.766845703125,405.6437072753906,266.8232421875,404.4671936035156C270.596435546875,403.0145568847656,273.990478515625,402.1513977050781,277.395751953125,401.7779846191406C290.920166015625,400.2950744628906,292.893310546875,399.7658996582031,293.46142578125,397.4695129394531C293.956787109375,395.4668884277344,293.179931640625,393.8834533691406,289.66943359375,389.7407531738281C284.495361328125,383.6340026855469,279.015380859375,380.9028625488281,272.570556640625,381.2186584472656L272.571044921875,381.2189025878906M267.93798828125,384.5721740722656C266.69287109375,385.0592346191406,264.819091796875,386.2463073730469,263.7744140625,387.2102355957031C262.729248046875,388.1739807128906,261.821533203125,388.8227844238281,261.7568359375,388.6521301269531C261.412109375,387.7392272949219,268.764404296875,383.0780334472656,269.83447265625,383.5311584472656C270.036376953125,383.6167297363281,269.182861328125,384.0851135253906,267.93798828125,384.5721740722656L267.93798828125,384.5721740722656M288.018310546875,392.3219299316406C288.05419921875,392.6373596191406,287.871337890625,392.8057556152344,287.61279296875,392.6961975097656C287.353271484375,392.5863342285156,287.111572265625,392.2386779785156,287.07568359375,391.9228210449219C287.039794921875,391.6073303222656,287.22265625,391.4391174316406,287.4814453125,391.5487365722656C287.74072265625,391.6584777832031,287.982177734375,392.0062561035156,288.018310546875,392.3219299316406L288.018310546875,392.3219299316406M275.940673828125,391.6852111816406C276.102783203125,392.1141662597656,275.97119140625,392.9920959472656,275.6484375,393.6361389160156C274.90234375,395.1244812011719,273.720703125,395.5498352050781,272.16357421875,394.8904113769531C270.60595703125,394.2309265136719,270.189697265625,393.1291809082031,270.935791015625,391.6408386230469C271.681640625,390.1524963378906,272.86328125,389.7272033691406,274.4208984375,390.3865661621094C275.0947265625,390.6717834472656,275.778564453125,391.2561950683594,275.940673828125,391.6852111816406L275.940673828125,391.6852111816406M272.696044921875,391.5602111816406C271.4609375,392.1304016113281,271.416015625,393.4820251464844,272.61474609375,393.9896545410156C273.149658203125,394.2160949707031,273.863525390625,394.1467590332031,274.201904296875,393.8357849121094C274.81103515625,393.2760314941406,274.65576171875,391.5779724121094,273.96923828125,391.2872619628906C273.7734375,391.2044372558594,273.20068359375,391.3273010253906,272.696044921875,391.5602111816406L272.696044921875,391.5602111816406M285.234130859375,399.5863952636719C285.176513671875,399.7011413574219,284.5302734375,399.8363342285156,283.79833984375,399.8866271972656C282.59130859375,399.9692687988281,282.5625,399.9334411621094,283.489501953125,399.5022277832031C284.44140625,399.0594787597656,285.47314453125,399.1092834472656,285.234130859375,399.5862121582031L285.234130859375,399.5863952636719M282.1982421875,399.9441223144531C282.139404296875,400.0617980957031,281.2412109375,400.1874084472656,280.201904296875,400.2234802246094L278.312255859375,400.2892761230469L279.950439453125,399.8701477050781C281.52783203125,399.4667053222656,282.423095703125,399.4961242675781,282.1982421875,399.9441223144531L282.1982421875,399.9441223144531M260.65380859375,392.0190124511719C260.74365234375,392.2574768066406,260.536865234375,392.9682312011719,260.193603515625,393.5987243652344C259.5810546875,394.7242736816406,259.57470703125,394.7178039550781,259.82080078125,393.2405700683594C260.079345703125,391.6885070800781,260.36865234375,391.2643127441406,260.653564453125,392.0189514160156L260.65380859375,392.0190124511719M272.823974609375,401.4138488769531C271.6376953125,401.8576965332031,265.708740234375,402.3143615722656,266.1279296875,401.9289245605469C266.393798828125,401.6844787597656,268.107177734375,401.4317932128906,269.935791015625,401.3674011230469C271.76416015625,401.3030090332031,273.063720703125,401.3238830566406,272.823974609375,401.4138488769531L272.823974609375,401.4138488769531M258.5048828125,399.7747497558594C258.391845703125,401.0998840332031,258.111328125,401.3352966308594,258.01318359375,400.1870422363281C257.964599609375,399.6185607910156,258.07177734375,399.1004943847656,258.251220703125,399.0357971191406C258.430908203125,398.9717102050781,258.544677734375,399.3037414550781,258.5048828125,399.7746887207031L258.5048828125,399.7747497558594" style="stroke-width:2.65296;fill:#386641;fill-opacity:1"></path>
                </g>
                <g style="stroke-width:2.65296" id="strokes-c49a8f15-df4f-80b8-8006-67bd6481c474-b767314a-b3f3-807d-8006-677030531614" class="strokes">
                    <g class="inner-stroke-shape">
                        <defs>
                            <clipPath id="inner-stroke-render-6964-b767314a-b3f3-807d-8006-677030531614-0">
                                <use href="#stroke-shape-render-6964-b767314a-b3f3-807d-8006-677030531614-0"></use>
                            </clipPath>
                            <path d="M284.465576171875,383.4531555175781C288.52392578125,385.9844055175781,292.32470703125,390.0494689941406,294.353271484375,394.0282897949219C295.064453125,395.4227600097656,294.9921875,397.2139587402344,294.157958984375,398.8782043457031C293.01953125,401.1501159667969,290.8564453125,401.6802062988281,277.2255859375,403.0270690917969C274.456787109375,403.3006896972656,270.639892578125,404.2351379394531,267.331298828125,405.4496154785156C259.19482421875,408.4360656738281,255.8330078125,407.5365295410156,254.774169921875,402.0890197753906C254.11083984375,398.6763000488281,255.19091796875,392.2799377441406,257.060791015625,388.5492248535156C259.77783203125,383.1285705566406,265.07763671875,380.3395080566406,272.968017578125,380.1780090332031C277.658203125,380.0820617675781,280.239013671875,380.8171081542969,284.465576171875,383.4531555175781L284.465576171875,383.4531555175781M272.571044921875,381.2189025878906C268.896240234375,381.3989562988281,264.228515625,382.8836364746094,261.373046875,384.7804870605469C258.38037109375,386.7687683105469,256.579833984375,390.3587951660156,256.01318359375,395.4658508300781C255.254150390625,402.3163757324219,256.497802734375,405.8252258300781,259.882080078125,406.3796691894531C260.643310546875,406.5042419433594,263.766845703125,405.6437072753906,266.8232421875,404.4671936035156C270.596435546875,403.0145568847656,273.990478515625,402.1513977050781,277.395751953125,401.7779846191406C290.920166015625,400.2950744628906,292.893310546875,399.7658996582031,293.46142578125,397.4695129394531C293.956787109375,395.4668884277344,293.179931640625,393.8834533691406,289.66943359375,389.7407531738281C284.495361328125,383.6340026855469,279.015380859375,380.9028625488281,272.570556640625,381.2186584472656L272.571044921875,381.2189025878906M267.93798828125,384.5721740722656C266.69287109375,385.0592346191406,264.819091796875,386.2463073730469,263.7744140625,387.2102355957031C262.729248046875,388.1739807128906,261.821533203125,388.8227844238281,261.7568359375,388.6521301269531C261.412109375,387.7392272949219,268.764404296875,383.0780334472656,269.83447265625,383.5311584472656C270.036376953125,383.6167297363281,269.182861328125,384.0851135253906,267.93798828125,384.5721740722656L267.93798828125,384.5721740722656M288.018310546875,392.3219299316406C288.05419921875,392.6373596191406,287.871337890625,392.8057556152344,287.61279296875,392.6961975097656C287.353271484375,392.5863342285156,287.111572265625,392.2386779785156,287.07568359375,391.9228210449219C287.039794921875,391.6073303222656,287.22265625,391.4391174316406,287.4814453125,391.5487365722656C287.74072265625,391.6584777832031,287.982177734375,392.0062561035156,288.018310546875,392.3219299316406L288.018310546875,392.3219299316406M275.940673828125,391.6852111816406C276.102783203125,392.1141662597656,275.97119140625,392.9920959472656,275.6484375,393.6361389160156C274.90234375,395.1244812011719,273.720703125,395.5498352050781,272.16357421875,394.8904113769531C270.60595703125,394.2309265136719,270.189697265625,393.1291809082031,270.935791015625,391.6408386230469C271.681640625,390.1524963378906,272.86328125,389.7272033691406,274.4208984375,390.3865661621094C275.0947265625,390.6717834472656,275.778564453125,391.2561950683594,275.940673828125,391.6852111816406L275.940673828125,391.6852111816406M272.696044921875,391.5602111816406C271.4609375,392.1304016113281,271.416015625,393.4820251464844,272.61474609375,393.9896545410156C273.149658203125,394.2160949707031,273.863525390625,394.1467590332031,274.201904296875,393.8357849121094C274.81103515625,393.2760314941406,274.65576171875,391.5779724121094,273.96923828125,391.2872619628906C273.7734375,391.2044372558594,273.20068359375,391.3273010253906,272.696044921875,391.5602111816406L272.696044921875,391.5602111816406M285.234130859375,399.5863952636719C285.176513671875,399.7011413574219,284.5302734375,399.8363342285156,283.79833984375,399.8866271972656C282.59130859375,399.9692687988281,282.5625,399.9334411621094,283.489501953125,399.5022277832031C284.44140625,399.0594787597656,285.47314453125,399.1092834472656,285.234130859375,399.5862121582031L285.234130859375,399.5863952636719M282.1982421875,399.9441223144531C282.139404296875,400.0617980957031,281.2412109375,400.1874084472656,280.201904296875,400.2234802246094L278.312255859375,400.2892761230469L279.950439453125,399.8701477050781C281.52783203125,399.4667053222656,282.423095703125,399.4961242675781,282.1982421875,399.9441223144531L282.1982421875,399.9441223144531M260.65380859375,392.0190124511719C260.74365234375,392.2574768066406,260.536865234375,392.9682312011719,260.193603515625,393.5987243652344C259.5810546875,394.7242736816406,259.57470703125,394.7178039550781,259.82080078125,393.2405700683594C260.079345703125,391.6885070800781,260.36865234375,391.2643127441406,260.653564453125,392.0189514160156L260.65380859375,392.0190124511719M272.823974609375,401.4138488769531C271.6376953125,401.8576965332031,265.708740234375,402.3143615722656,266.1279296875,401.9289245605469C266.393798828125,401.6844787597656,268.107177734375,401.4317932128906,269.935791015625,401.3674011230469C271.76416015625,401.3030090332031,273.063720703125,401.3238830566406,272.823974609375,401.4138488769531L272.823974609375,401.4138488769531M258.5048828125,399.7747497558594C258.391845703125,401.0998840332031,258.111328125,401.3352966308594,258.01318359375,400.1870422363281C257.964599609375,399.6185607910156,258.07177734375,399.1004943847656,258.251220703125,399.0357971191406C258.430908203125,398.9717102050781,258.544677734375,399.3037414550781,258.5048828125,399.7746887207031L258.5048828125,399.7747497558594" style="fill:none;fill-opacity:none;stroke-width:2;stroke:#386641;stroke-opacity:1" id="stroke-shape-render-6964-b767314a-b3f3-807d-8006-677030531614-0"></path>
                        </defs>
                        <use href="#stroke-shape-render-6964-b767314a-b3f3-807d-8006-677030531614-0" clip-path="url(&#x27;#inner-stroke-render-6964-b767314a-b3f3-807d-8006-677030531614-0&#x27;)"></use>
                    </g>
                </g>
            </g>
            <g id="shape-b767314a-b3f3-807d-8006-677030531615">
                <defs></defs>
                <g class="fills" id="fills-b767314a-b3f3-807d-8006-677030531615">
                    <path d="M290.97119140625,377.4560852050781C288.516845703125,379.2917175292969,283.034423828125,380.4283752441406,278.96240234375,379.9459533691406C275.9697265625,379.5913391113281,274.93896484375,379.2035827636719,271.112060546875,376.9918518066406C266.9580078125,374.5917663574219,266.5546875,374.2313537597656,264.04833984375,370.6933898925781C259.48974609375,364.2589416503906,258.343994140625,360.1454162597656,260.302978515625,357.2483215332031C261.69873046875,355.1842346191406,263.91943359375,354.7224426269531,270.45166015625,355.1379699707031C275.0400390625,355.4298400878906,277.906982421875,355.2231140136719,282.799560546875,354.2475891113281C289.615478515625,352.8887023925781,295.312744140625,352.4313659667969,297.355224609375,353.0791931152344C299.374755859375,353.7197570800781,300.422119140625,356.4715270996094,299.906005859375,359.7788391113281C298.912353515625,366.1425476074219,294.545166015625,374.7829895019531,290.97119140625,377.4560852050781L290.97119140625,377.4560852050781M296.216796875,367.8481750488281C296.99462890625,365.9402160644531,297.9130859375,363.0907287597656,298.2578125,361.5160217285156C299.00439453125,358.1062316894531,298.299072265625,354.3308410644531,296.864501953125,354.0619201660156C294.658203125,353.6482238769531,288.004638671875,354.2416076660156,282.693115234375,355.3257141113281C278.738037109375,356.1329650878906,274.987548828125,356.4215393066406,270.31103515625,356.2782897949219C262.5830078125,356.0415344238281,260.942138671875,356.4792175292969,260.6943359375,358.8424987792969C260.6044921875,359.6970520019531,260.755615234375,361.3326110839844,261.02978515625,362.4769592285156C261.674560546875,365.1651916503906,266.09228515625,371.9790344238281,268.62744140625,374.1944885253906C273.3359375,378.3088684082031,280.79541015625,379.8982238769531,286.70654296875,378.0464782714844C291.358154296875,376.5892639160156,293.659423828125,374.1216125488281,296.216796875,367.8481750488281L296.216796875,367.8481750488281M284.400146484375,376.9824523925781C283.35107421875,377.1000061035156,283.345458984375,377.0762023925781,284.341552734375,376.7270812988281C285.38818359375,376.3603820800781,285.89892578125,376.3475036621094,285.664794921875,376.6940002441406C285.605712890625,376.7813415527344,285.036376953125,376.9112854003906,284.399658203125,376.9825744628906L284.400146484375,376.9824523925781M297.2919921875,356.8419494628906C297.06494140625,356.7096252441406,296.8857421875,356.3435363769531,296.893310546875,356.0287780761719C296.901123046875,355.7005310058594,297.12451171875,355.7326965332031,297.41748046875,356.1042175292969C297.9873046875,356.8274230957031,297.92236328125,357.2102355957031,297.2919921875,356.8420104980469L297.2919921875,356.8419494628906M281.72021484375,377.1036682128906C281.0703125,377.0700988769531,280.60302734375,376.9476623535156,280.68115234375,376.8318786621094C280.759765625,376.7160949707031,281.35498046875,376.6490783691406,282.004638671875,376.6827697753906C282.654296875,376.7165222167969,283.121826171875,376.8388977050781,283.04345703125,376.9546203613281C282.965087890625,377.0703430175781,282.369873046875,377.1374816894531,281.72021484375,377.1036682128906L281.72021484375,377.1036682128906M290.492431640625,356.7297668457031C287.439697265625,357.1837463378906,283.187744140625,357.8820495605469,281.044189453125,358.2815246582031C278.900390625,358.6810607910156,276.493408203125,358.9566955566406,275.6953125,358.8940734863281C274.26318359375,358.7817687988281,283.34765625,356.8642272949219,286.01708984375,356.7153015136719C286.774169921875,356.6730651855469,288.711669921875,356.3805236816406,290.3232421875,356.0651550292969C293.794189453125,355.3856506347656,295.887451171875,355.2197570800781,295.97802734375,355.6169738769531C296.014404296875,355.7749938964844,293.54541015625,356.2758483886719,290.492431640625,356.7297668457031L290.492431640625,356.7297668457031M282.329345703125,370.0295715332031C280.72607421875,370.3175354003906,279.28857421875,369.4990539550781,278.975341796875,368.1195983886719C278.452880859375,365.8169250488281,280.909912109375,364.3009948730469,283.095947265625,365.5775451660156C285.345703125,366.8916320800781,284.884521484375,369.5707092285156,282.329345703125,370.0295715332031L282.329345703125,370.0295715332031M282.83642578125,366.7950744628906C282.551025390625,366.4328918457031,281.784912109375,366.2580871582031,281.13427734375,366.4066467285156C280.038818359375,366.6565246582031,279.969970703125,366.7585144042969,280.20263671875,367.7843322753906C280.5166015625,369.1681823730469,281.987548828125,369.4762878417969,282.768310546875,368.3219299316406C283.09130859375,367.8443908691406,283.1220703125,367.1573791503906,282.83642578125,366.7950744628906L282.83642578125,366.7950744628906M269.9140625,368.8172912597656C268.7353515625,368.6139221191406,268.7177734375,368.2098693847656,269.878173828125,367.9915466308594C270.477294921875,367.8788757324219,270.81591796875,368.0248107910156,270.80712890625,368.3916320800781C270.799560546875,368.7091979980469,270.39794921875,368.9007873535156,269.9140625,368.8172912597656L269.9140625,368.8172912597656M268.36279296875,358.2590637207031C265.440673828125,358.0117492675781,264.435791015625,357.7767639160156,265.287841796875,357.5401916503906C266.531494140625,357.1946105957031,272.5458984375,357.8742980957031,272.6494140625,358.3721008300781C272.6787109375,358.5118713378906,270.74951171875,358.4612121582031,268.36279296875,358.2590637207031L268.36279296875,358.2590637207031" style="stroke-width:2.65296;fill:#386641;fill-opacity:1"></path>
                </g>
                <g style="stroke-width:2.65296" id="strokes-c49a8f15-df4f-80b8-8006-67bd648236f6-b767314a-b3f3-807d-8006-677030531615" class="strokes">
                    <g class="inner-stroke-shape">
                        <defs>
                            <clipPath id="inner-stroke-render-6965-b767314a-b3f3-807d-8006-677030531615-0">
                                <use href="#stroke-shape-render-6965-b767314a-b3f3-807d-8006-677030531615-0"></use>
                            </clipPath>
                            <path d="M290.97119140625,377.4560852050781C288.516845703125,379.2917175292969,283.034423828125,380.4283752441406,278.96240234375,379.9459533691406C275.9697265625,379.5913391113281,274.93896484375,379.2035827636719,271.112060546875,376.9918518066406C266.9580078125,374.5917663574219,266.5546875,374.2313537597656,264.04833984375,370.6933898925781C259.48974609375,364.2589416503906,258.343994140625,360.1454162597656,260.302978515625,357.2483215332031C261.69873046875,355.1842346191406,263.91943359375,354.7224426269531,270.45166015625,355.1379699707031C275.0400390625,355.4298400878906,277.906982421875,355.2231140136719,282.799560546875,354.2475891113281C289.615478515625,352.8887023925781,295.312744140625,352.4313659667969,297.355224609375,353.0791931152344C299.374755859375,353.7197570800781,300.422119140625,356.4715270996094,299.906005859375,359.7788391113281C298.912353515625,366.1425476074219,294.545166015625,374.7829895019531,290.97119140625,377.4560852050781L290.97119140625,377.4560852050781M296.216796875,367.8481750488281C296.99462890625,365.9402160644531,297.9130859375,363.0907287597656,298.2578125,361.5160217285156C299.00439453125,358.1062316894531,298.299072265625,354.3308410644531,296.864501953125,354.0619201660156C294.658203125,353.6482238769531,288.004638671875,354.2416076660156,282.693115234375,355.3257141113281C278.738037109375,356.1329650878906,274.987548828125,356.4215393066406,270.31103515625,356.2782897949219C262.5830078125,356.0415344238281,260.942138671875,356.4792175292969,260.6943359375,358.8424987792969C260.6044921875,359.6970520019531,260.755615234375,361.3326110839844,261.02978515625,362.4769592285156C261.674560546875,365.1651916503906,266.09228515625,371.9790344238281,268.62744140625,374.1944885253906C273.3359375,378.3088684082031,280.79541015625,379.8982238769531,286.70654296875,378.0464782714844C291.358154296875,376.5892639160156,293.659423828125,374.1216125488281,296.216796875,367.8481750488281L296.216796875,367.8481750488281M284.400146484375,376.9824523925781C283.35107421875,377.1000061035156,283.345458984375,377.0762023925781,284.341552734375,376.7270812988281C285.38818359375,376.3603820800781,285.89892578125,376.3475036621094,285.664794921875,376.6940002441406C285.605712890625,376.7813415527344,285.036376953125,376.9112854003906,284.399658203125,376.9825744628906L284.400146484375,376.9824523925781M297.2919921875,356.8419494628906C297.06494140625,356.7096252441406,296.8857421875,356.3435363769531,296.893310546875,356.0287780761719C296.901123046875,355.7005310058594,297.12451171875,355.7326965332031,297.41748046875,356.1042175292969C297.9873046875,356.8274230957031,297.92236328125,357.2102355957031,297.2919921875,356.8420104980469L297.2919921875,356.8419494628906M281.72021484375,377.1036682128906C281.0703125,377.0700988769531,280.60302734375,376.9476623535156,280.68115234375,376.8318786621094C280.759765625,376.7160949707031,281.35498046875,376.6490783691406,282.004638671875,376.6827697753906C282.654296875,376.7165222167969,283.121826171875,376.8388977050781,283.04345703125,376.9546203613281C282.965087890625,377.0703430175781,282.369873046875,377.1374816894531,281.72021484375,377.1036682128906L281.72021484375,377.1036682128906M290.492431640625,356.7297668457031C287.439697265625,357.1837463378906,283.187744140625,357.8820495605469,281.044189453125,358.2815246582031C278.900390625,358.6810607910156,276.493408203125,358.9566955566406,275.6953125,358.8940734863281C274.26318359375,358.7817687988281,283.34765625,356.8642272949219,286.01708984375,356.7153015136719C286.774169921875,356.6730651855469,288.711669921875,356.3805236816406,290.3232421875,356.0651550292969C293.794189453125,355.3856506347656,295.887451171875,355.2197570800781,295.97802734375,355.6169738769531C296.014404296875,355.7749938964844,293.54541015625,356.2758483886719,290.492431640625,356.7297668457031L290.492431640625,356.7297668457031M282.329345703125,370.0295715332031C280.72607421875,370.3175354003906,279.28857421875,369.4990539550781,278.975341796875,368.1195983886719C278.452880859375,365.8169250488281,280.909912109375,364.3009948730469,283.095947265625,365.5775451660156C285.345703125,366.8916320800781,284.884521484375,369.5707092285156,282.329345703125,370.0295715332031L282.329345703125,370.0295715332031M282.83642578125,366.7950744628906C282.551025390625,366.4328918457031,281.784912109375,366.2580871582031,281.13427734375,366.4066467285156C280.038818359375,366.6565246582031,279.969970703125,366.7585144042969,280.20263671875,367.7843322753906C280.5166015625,369.1681823730469,281.987548828125,369.4762878417969,282.768310546875,368.3219299316406C283.09130859375,367.8443908691406,283.1220703125,367.1573791503906,282.83642578125,366.7950744628906L282.83642578125,366.7950744628906M269.9140625,368.8172912597656C268.7353515625,368.6139221191406,268.7177734375,368.2098693847656,269.878173828125,367.9915466308594C270.477294921875,367.8788757324219,270.81591796875,368.0248107910156,270.80712890625,368.3916320800781C270.799560546875,368.7091979980469,270.39794921875,368.9007873535156,269.9140625,368.8172912597656L269.9140625,368.8172912597656M268.36279296875,358.2590637207031C265.440673828125,358.0117492675781,264.435791015625,357.7767639160156,265.287841796875,357.5401916503906C266.531494140625,357.1946105957031,272.5458984375,357.8742980957031,272.6494140625,358.3721008300781C272.6787109375,358.5118713378906,270.74951171875,358.4612121582031,268.36279296875,358.2590637207031L268.36279296875,358.2590637207031" style="fill:none;fill-opacity:none;stroke-width:2;stroke:#386641;stroke-opacity:1" id="stroke-shape-render-6965-b767314a-b3f3-807d-8006-677030531615-0"></path>
                        </defs>
                        <use href="#stroke-shape-render-6965-b767314a-b3f3-807d-8006-677030531615-0" clip-path="url(&#x27;#inner-stroke-render-6965-b767314a-b3f3-807d-8006-677030531615-0&#x27;)"></use>
                    </g>
                </g>
            </g>
            <g id="shape-b767314a-b3f3-807d-8006-677030531616">
                <defs></defs>
                <g class="fills" id="fills-b767314a-b3f3-807d-8006-677030531616">
                    <path d="M254.387451171875,389.4884338378906C250.758544921875,393.0742492675781,244.899169921875,394.6805725097656,238.582763671875,393.8215026855469C234.661376953125,393.2882385253906,233.9716796875,393.0249328613281,228.13671875,389.8334045410156C222.4521484375,386.7240295410156,221.81298828125,386.2642517089844,221.043701171875,384.7289123535156C220.31201171875,383.2691955566406,220.35595703125,382.8076477050781,221.3701171875,381.3082580566406C222.91455078125,379.0244445800781,233.101318359375,370.6134338378906,233.2939453125,371.4629211425781C233.364501953125,371.7737121582031,227.40625,377.1017150878906,224.52734375,379.3020324707031C219.944580078125,382.8050231933594,220.5517578125,384.4051818847656,228.148193359375,388.8418273925781C232.482421875,391.3733825683594,233.6181640625,391.8429870605469,236.173828125,392.1603088378906C237.81103515625,392.3636169433594,239.79443359375,392.7204895019531,240.58154296875,392.9532775878906C242.7001953125,393.5801696777344,247.962158203125,392.4029846191406,250.802978515625,390.6666564941406C254.82080078125,388.2112121582031,257.00048828125,385.7783508300781,258.2275390625,382.3810119628906C259.54248046875,378.7400207519531,257.361328125,368.2044982910156,254.156982421875,362.7186584472656C252.7158203125,360.2514953613281,252.692626953125,360.2340393066406,250.83154296875,360.2121887207031C248.705810546875,360.1871643066406,246.488525390625,361.3087463378906,242.903564453125,364.2221984863281C241.541748046875,365.3288879394531,240.56591796875,365.9054260253906,240.734619140625,365.5035705566406C240.903564453125,365.1016540527344,242.421630859375,363.6394348144531,244.10791015625,362.2541809082031C251.373779296875,356.2853088378906,255.1630859375,358.5602111816406,258.57763671875,370.9413146972656C260.9052734375,379.3818664550781,259.8388671875,384.1016540527344,254.387451171875,389.4884338378906ZM254.56201171875,371.0959777832031C254.363037109375,370.3955383300781,254.2646484375,369.7276916503906,254.343017578125,369.6118469238281C254.42138671875,369.4961242675781,254.64794921875,369.9746398925781,254.846435546875,370.6751403808594C255.045166015625,371.3756408691406,255.1435546875,372.0436096191406,255.065673828125,372.1592102050781C254.987060546875,372.2750549316406,254.760498046875,371.7966003417969,254.56201171875,371.0959777832031ZM243.466796875,383.9526062011719C242.29052734375,384.1638488769531,242.020751953125,384.0348205566406,241.27197265625,382.9042053222656C239.783935546875,380.6563415527344,242.473388671875,377.8334045410156,244.805908203125,379.1953430175781C246.811767578125,380.3670959472656,245.927001953125,383.5107727050781,243.467041015625,383.9526672363281ZM244.68359375,381.0028991699219C244.43994140625,379.9288635253906,244.088623046875,379.7658386230469,242.699951171875,380.0826721191406C241.349609375,380.3908996582031,241.239990234375,381.8099670410156,242.509521484375,382.5511779785156C243.865478515625,383.3433532714844,245.02685546875,382.5163879394531,244.68359375,381.0028991699219ZM249.4306640625,363.0495910644531C248.1474609375,363.0428771972656,248.144287109375,363.0284118652344,249.357177734375,362.7257385253906C250.05517578125,362.5515441894531,250.65966796875,362.5547180175781,250.7001953125,362.7327575683594C250.73974609375,362.9109191894531,250.169189453125,363.0533752441406,249.4306640625,363.0494689941406ZM232.59619140625,388.2104187011719C232.258544921875,388.2127990722656,232.11767578125,388.0140686035156,232.283447265625,387.7689514160156C232.44921875,387.5238342285156,232.781982421875,387.4383239746094,233.02294921875,387.5791320800781C233.26416015625,387.7198791503906,233.40478515625,387.9184875488281,233.3359375,388.0205993652344C233.2666015625,388.1227111816406,232.93408203125,388.2083435058594,232.59619140625,388.2104187011719ZM237.516845703125,368.8072204589844C236.87158203125,369.0565490722656,236.307861328125,369.1042785644531,236.2646484375,368.9131164550781C236.221435546875,368.7217102050781,236.880126953125,368.3147277832031,237.729736328125,368.0083312988281C239.498291015625,367.3700256347656,239.299072265625,368.1188049316406,237.5166015625,368.8071594238281ZM228.267333984375,378.3431701660156C227.798828125,378.5540466308594,227.543701171875,378.5369567871094,227.7001953125,378.3054504394531C227.85693359375,378.0739440917969,228.368408203125,377.7122497558594,228.836669921875,377.5012512207031C229.304931640625,377.2905578613281,229.560302734375,377.3075256347656,229.40380859375,377.5389709472656C229.2470703125,377.7706604003906,228.735595703125,378.1323547363281,228.267333984375,378.3431701660156Z" style="stroke-width:2.65296;fill:#386641;fill-opacity:1"></path>
                </g>
                <g style="stroke-width:2.65296" id="strokes-c49a8f15-df4f-80b8-8006-67bd64827c49-b767314a-b3f3-807d-8006-677030531616" class="strokes">
                    <g class="inner-stroke-shape">
                        <defs>
                            <clipPath id="inner-stroke-render-6966-b767314a-b3f3-807d-8006-677030531616-0">
                                <use href="#stroke-shape-render-6966-b767314a-b3f3-807d-8006-677030531616-0"></use>
                            </clipPath>
                            <path d="M254.387451171875,389.4884338378906C250.758544921875,393.0742492675781,244.899169921875,394.6805725097656,238.582763671875,393.8215026855469C234.661376953125,393.2882385253906,233.9716796875,393.0249328613281,228.13671875,389.8334045410156C222.4521484375,386.7240295410156,221.81298828125,386.2642517089844,221.043701171875,384.7289123535156C220.31201171875,383.2691955566406,220.35595703125,382.8076477050781,221.3701171875,381.3082580566406C222.91455078125,379.0244445800781,233.101318359375,370.6134338378906,233.2939453125,371.4629211425781C233.364501953125,371.7737121582031,227.40625,377.1017150878906,224.52734375,379.3020324707031C219.944580078125,382.8050231933594,220.5517578125,384.4051818847656,228.148193359375,388.8418273925781C232.482421875,391.3733825683594,233.6181640625,391.8429870605469,236.173828125,392.1603088378906C237.81103515625,392.3636169433594,239.79443359375,392.7204895019531,240.58154296875,392.9532775878906C242.7001953125,393.5801696777344,247.962158203125,392.4029846191406,250.802978515625,390.6666564941406C254.82080078125,388.2112121582031,257.00048828125,385.7783508300781,258.2275390625,382.3810119628906C259.54248046875,378.7400207519531,257.361328125,368.2044982910156,254.156982421875,362.7186584472656C252.7158203125,360.2514953613281,252.692626953125,360.2340393066406,250.83154296875,360.2121887207031C248.705810546875,360.1871643066406,246.488525390625,361.3087463378906,242.903564453125,364.2221984863281C241.541748046875,365.3288879394531,240.56591796875,365.9054260253906,240.734619140625,365.5035705566406C240.903564453125,365.1016540527344,242.421630859375,363.6394348144531,244.10791015625,362.2541809082031C251.373779296875,356.2853088378906,255.1630859375,358.5602111816406,258.57763671875,370.9413146972656C260.9052734375,379.3818664550781,259.8388671875,384.1016540527344,254.387451171875,389.4884338378906ZM254.56201171875,371.0959777832031C254.363037109375,370.3955383300781,254.2646484375,369.7276916503906,254.343017578125,369.6118469238281C254.42138671875,369.4961242675781,254.64794921875,369.9746398925781,254.846435546875,370.6751403808594C255.045166015625,371.3756408691406,255.1435546875,372.0436096191406,255.065673828125,372.1592102050781C254.987060546875,372.2750549316406,254.760498046875,371.7966003417969,254.56201171875,371.0959777832031ZM243.466796875,383.9526062011719C242.29052734375,384.1638488769531,242.020751953125,384.0348205566406,241.27197265625,382.9042053222656C239.783935546875,380.6563415527344,242.473388671875,377.8334045410156,244.805908203125,379.1953430175781C246.811767578125,380.3670959472656,245.927001953125,383.5107727050781,243.467041015625,383.9526672363281ZM244.68359375,381.0028991699219C244.43994140625,379.9288635253906,244.088623046875,379.7658386230469,242.699951171875,380.0826721191406C241.349609375,380.3908996582031,241.239990234375,381.8099670410156,242.509521484375,382.5511779785156C243.865478515625,383.3433532714844,245.02685546875,382.5163879394531,244.68359375,381.0028991699219ZM249.4306640625,363.0495910644531C248.1474609375,363.0428771972656,248.144287109375,363.0284118652344,249.357177734375,362.7257385253906C250.05517578125,362.5515441894531,250.65966796875,362.5547180175781,250.7001953125,362.7327575683594C250.73974609375,362.9109191894531,250.169189453125,363.0533752441406,249.4306640625,363.0494689941406ZM232.59619140625,388.2104187011719C232.258544921875,388.2127990722656,232.11767578125,388.0140686035156,232.283447265625,387.7689514160156C232.44921875,387.5238342285156,232.781982421875,387.4383239746094,233.02294921875,387.5791320800781C233.26416015625,387.7198791503906,233.40478515625,387.9184875488281,233.3359375,388.0205993652344C233.2666015625,388.1227111816406,232.93408203125,388.2083435058594,232.59619140625,388.2104187011719ZM237.516845703125,368.8072204589844C236.87158203125,369.0565490722656,236.307861328125,369.1042785644531,236.2646484375,368.9131164550781C236.221435546875,368.7217102050781,236.880126953125,368.3147277832031,237.729736328125,368.0083312988281C239.498291015625,367.3700256347656,239.299072265625,368.1188049316406,237.5166015625,368.8071594238281ZM228.267333984375,378.3431701660156C227.798828125,378.5540466308594,227.543701171875,378.5369567871094,227.7001953125,378.3054504394531C227.85693359375,378.0739440917969,228.368408203125,377.7122497558594,228.836669921875,377.5012512207031C229.304931640625,377.2905578613281,229.560302734375,377.3075256347656,229.40380859375,377.5389709472656C229.2470703125,377.7706604003906,228.735595703125,378.1323547363281,228.267333984375,378.3431701660156Z" style="fill:none;fill-opacity:none;stroke-width:2;stroke:#386641;stroke-opacity:1" id="stroke-shape-render-6966-b767314a-b3f3-807d-8006-677030531616-0"></path>
                        </defs>
                        <use href="#stroke-shape-render-6966-b767314a-b3f3-807d-8006-677030531616-0" clip-path="url(&#x27;#inner-stroke-render-6966-b767314a-b3f3-807d-8006-677030531616-0&#x27;)"></use>
                    </g>
                </g>
            </g>
        </g>
    </g>
</svg>